<?xml version="1.0" standalone="no"?>
<svg xmlns="http://www.w3.org/2000/svg" viewBox="0 0 72 58" width="72" height="58"><g fill="#626e60" color="#626e60" transform="translate(18.464 0) scale(0.7291667) "><svg width="48.0" height="40.0" x="0.0" y="0.0" viewBox="0 0 48 40"><path fill="currentColor" fill-rule="evenodd" d="M41.576 0L12.872 28.703v-2.95L38.625 0h-4.1l-10.9 10.898L12.725 0h-4.1l12.949 12.95-1.476 1.474L5.675 0h-4.1l16.474 16.475-1.475 1.475L0 1.376V40h2.9V8.378l2.087 2.086V40h2.9V13.364l2.086 2.087V40h2.9v-.146l10.752-10.752L34.525 40h2.951V15.253l2.086-2.087V40h2.9V10.266l2.087-2.086V40h2.898V5.434h-.153l.153-.154V1.178L12.872 35.754v-2.95L45.675 0h-4.1zm-8.849 20l1.848-1.848v3.697L32.727 20zm-19.855-1.65L14.522 20l-1.65 1.65V18.35zm16.329 5.176l1.476-1.474 3.898 3.899v2.952l-5.374-5.377zm-3.526 3.526l1.475-1.476 7.425 7.426v2.95l-8.9-8.9z"></path></svg></g><line x1="19.514" y1="35.166666666666664" x2="52.414" y2="35.166666666666664" stroke="#af473c" stroke-linecap="round"></line><path fill="#af473c" fill-rule="nonzero" d="M2.81 16.70L0.10 16.70Q0 16.70 0 16.58L0 16.58L0.05 0.10Q0.05 0 0.14 0L0.14 0L3.07 0Q3.17 0 3.24 0.10L3.24 0.10L5.42 3.26L7.61 0.10Q7.68 0 7.78 0L7.78 0L10.73 0Q10.82 0 10.82 0.10L10.82 0.10L10.87 16.58Q10.87 16.70 10.78 16.70L10.78 16.70L8.06 16.70Q7.97 16.70 7.97 16.58L7.97 16.58L7.94 4.34L5.42 7.99L2.93 4.34L2.90 16.58Q2.90 16.70 2.81 16.70L2.81 16.70ZM12.07 16.58L12.07 16.58L15.05 0.10Q15.07 0 15.17 0L15.17 0L18.65 0Q18.74 0 18.77 0.10L18.77 0.10L21.62 16.58Q21.65 16.70 21.53 16.70L21.53 16.70L18.86 16.70Q18.77 16.70 18.74 16.58L18.74 16.58L18.48 14.83L15.22 14.83L14.95 16.58Q14.93 16.70 14.83 16.70L14.83 16.70L12.17 16.70Q12.07 16.70 12.07 16.58ZM16.78 5.52L15.70 12.26L18 12.26L17.02 5.52L16.87 4.63L16.78 5.52ZM25.94 16.70L23.23 16.70Q23.14 16.70 23.14 16.58L23.14 16.58L23.18 0.10Q23.18 0 23.28 0L23.28 0L28.13 0Q29.42 0 30.52 0.64Q31.61 1.27 32.26 2.34Q32.90 3.41 32.90 4.75L32.90 4.75Q32.90 5.64 32.64 6.35Q32.38 7.06 32.02 7.55Q31.66 8.04 31.37 8.28L31.37 8.28Q32.66 9.72 32.66 11.66L32.66 11.66L32.69 16.58Q32.69 16.70 32.57 16.70L32.57 16.70L29.86 16.70Q29.76 16.70 29.76 16.63L29.76 16.63L29.76 11.66Q29.76 10.80 29.15 10.16Q28.54 9.53 27.65 9.53L27.65 9.53L26.06 9.53L26.04 16.58Q26.04 16.70 25.94 16.70L25.94 16.70ZM26.06 2.88L26.06 6.65L28.13 6.65Q28.87 6.65 29.45 6.10Q30.02 5.54 30.02 4.75L30.02 4.75Q30.02 3.98 29.46 3.43Q28.90 2.88 28.13 2.88L28.13 2.88L26.06 2.88ZM42.55 16.70L34.80 16.70Q34.70 16.70 34.70 16.58L34.70 16.58L34.73 0.10Q34.73 0 34.82 0L34.82 0L42.53 0Q42.62 0 42.62 0.12L42.62 0.12L42.62 2.81Q42.62 2.90 42.53 2.90L42.53 2.90L37.61 2.90L37.61 6.65L42.53 6.65Q42.62 6.65 42.62 6.74L42.62 6.74L42.65 9.46Q42.65 9.55 42.55 9.55L42.55 9.55L37.61 9.55L37.61 13.75L42.55 13.75Q42.65 13.75 42.65 13.87L42.65 13.87L42.65 16.61Q42.65 16.70 42.55 16.70L42.55 16.70ZM49.90 16.70L47.18 16.70Q47.09 16.70 47.09 16.58L47.09 16.58L47.09 2.90L43.97 2.90Q43.85 2.90 43.85 2.78L43.85 2.78L43.87 0.10Q43.87 0 43.97 0L43.97 0L53.09 0Q53.21 0 53.21 0.10L53.21 0.10L53.21 2.78Q53.21 2.90 53.11 2.90L53.11 2.90L49.97 2.90L49.99 16.58Q49.99 16.70 49.90 16.70L49.90 16.70ZM59.50 16.70L56.78 16.70Q56.69 16.70 56.69 16.58L56.69 16.58L56.69 2.90L53.57 2.90Q53.45 2.90 53.45 2.78L53.45 2.78L53.47 0.10Q53.47 0 53.57 0L53.57 0L62.69 0Q62.81 0 62.81 0.10L62.81 0.10L62.81 2.78Q62.81 2.90 62.71 2.90L62.71 2.90L59.57 2.90L59.59 16.58Q59.59 16.70 59.50 16.70L59.50 16.70ZM71.83 16.70L64.08 16.70Q63.98 16.70 63.98 16.58L63.98 16.58L64.01 0.10Q64.01 0 64.10 0L64.10 0L71.81 0Q71.90 0 71.90 0.12L71.90 0.12L71.90 2.81Q71.90 2.90 71.81 2.90L71.81 2.90L66.89 2.90L66.89 6.65L71.81 6.65Q71.90 6.65 71.90 6.74L71.90 6.74L71.93 9.46Q71.93 9.55 71.83 9.55L71.83 9.55L66.89 9.55L66.89 13.75L71.83 13.75Q71.93 13.75 71.93 13.87L71.93 13.87L71.93 16.61Q71.93 16.70 71.83 16.70L71.83 16.70Z" transform="translate(0, 41.167)"></path></svg>